<?xml version="1.0" encoding="iso-8859-1"?>
<!-- Generator: Adobe Illustrator 16.0.3, SVG Export Plug-In . SVG Version: 6.00 Build 0)  -->
<!DOCTYPE svg PUBLIC "-//W3C//DTD SVG 1.1//EN" "http://www.w3.org/Graphics/SVG/1.1/DTD/svg11.dtd">
<svg version="1.1" xmlns="http://www.w3.org/2000/svg" xmlns:xlink="http://www.w3.org/1999/xlink" x="0px" y="0px" width="750px"
	 height="500px" viewBox="0 0 750 500" style="enable-background:new 0 0 750 500;" xml:space="preserve">
<g id="BACKGROUND">
	<rect style="fill:#FFFFFF;" width="750" height="500"/>
</g>
<g id="OBJECTS">
	<g>
		<g>
			<path style="fill:#F5E9FF;" d="M83.287,230.946c0,0-28.861-70.107,31.61-123.021c60.473-52.913,126.042,17.867,182.248,15.118
				c56.206-2.749,93.985-104.452,170.614-100.329s110.759,78.3,89.228,130.546c-21.532,52.246-30.149,134.785-7.286,178.383
				c22.862,43.598,72.798,10.543,104.866,46.312S589.408,480,589.408,480H394.124c0,0-40.014-62.361-64.56-62.143
				C305.02,418.076,130.932,365.419,83.287,230.946z"/>
			<path style="fill:#E5D7FF;" d="M501.626,183.516c0,0,67.902-85.029-6.171-136.521c-74.072-51.491-114.008,56.807-176.731,68.26
				s-187.333-1.375-185.501,94.832c1.832,96.207,68.261,130.21,72.384,177.117s36.191,64.815,66.886,52.195
				c30.694-12.619,118.432-162.182,167.915-185.272C489.892,231.037,501.626,183.516,501.626,183.516z"/>
			<path style="fill:#E5D7FF;" d="M266.766,85.936c0,0,42.262,20.652,51.195-4.276C326.895,56.73,241.98,72.014,266.766,85.936z"/>
		</g>
		<g>
			<g>
				<path style="fill:#456DFF;" d="M394.358,459.156c0,0-15.397-53.646-54.705-71.952c2.629,11.237,0.938,77.413,21.97,92.771
					h46.381L394.358,459.156z"/>
				
					<path style="opacity:0.25;fill:none;stroke:#000000;stroke-width:1.7943;stroke-linecap:round;stroke-linejoin:round;stroke-miterlimit:10;" d="
					M392.125,452.563c0,0-11.917,8.781-12.478,18.097c-21.78-10.252-29.608-9.049-29.608-9.049"/>
				
					<path style="opacity:0.25;fill:none;stroke:#000000;stroke-width:1.7943;stroke-linecap:round;stroke-linejoin:round;stroke-miterlimit:10;" d="
					M383.969,433c0,0-10.939,6.825-12.136,15.708c0,0-17.256-8.558-26.971-8.851"/>
				
					<path style="opacity:0.25;fill:none;stroke:#000000;stroke-width:1.7943;stroke-linecap:round;stroke-linejoin:round;stroke-miterlimit:10;" d="
					M371.082,412.9c0,0-7.022,2.739-7.678,9.913c-10.419-4.28-21.082-4.129-21.082-4.129"/>
				
					<path style="opacity:0.25;fill:none;stroke:#000000;stroke-width:1.7943;stroke-linecap:round;stroke-linejoin:round;stroke-miterlimit:10;" d="
					M383.969,480c-2.629-4.442-9.014-19.592-16.712-46.41c-7.699-26.818-27.604-46.386-27.604-46.386"/>
			</g>
			<g>
				<path style="fill:#A52CE5;" d="M437.109,479.975c0,0,0.188-32.884-44.315-46.976c-6.385,26.281,11.83,47,11.83,47
					L437.109,479.975z"/>
				
					<path style="opacity:0.25;fill:none;stroke:#000000;stroke-width:1.7943;stroke-linecap:round;stroke-linejoin:round;stroke-miterlimit:10;" d="
					M392.794,433c0,0,28.434,36.924,28.206,47"/>
				
					<path style="opacity:0.25;fill:none;stroke:#000000;stroke-width:1.7943;stroke-linecap:round;stroke-linejoin:round;stroke-miterlimit:10;" d="
					M432.276,462.965c0,0-11.043,3.031-12.822,11.128c-10.136-3.265-20.056-1.687-20.056-1.687"/>
				
					<path style="opacity:0.25;fill:none;stroke:#000000;stroke-width:1.7943;stroke-linecap:round;stroke-linejoin:round;stroke-miterlimit:10;" d="
					M421.295,448.708c0,0-8.896,5.221-9.45,11.465c-13.887-4.741-18.527-2.195-18.527-2.195"/>
				
					<path style="opacity:0.25;fill:none;stroke:#000000;stroke-width:1.7943;stroke-linecap:round;stroke-linejoin:round;stroke-miterlimit:10;" d="
					M408.937,439.857c0,0-4.654,3.889-5.234,8.089c-6.308-1.81-12.206-1.229-12.206-1.229"/>
			</g>
		</g>
		<g>
			<path style="fill:#FFFFFF;" d="M229.887,297.818c0,0-8.246-21.074-13.973-30.236s-5.269-20.615-9.85-31.152
				s-13.515-13.515-16.034-23.593c-2.521-10.079-8.705-17.18-8.705-17.18s217.494-38.824,251.511-38.997
				c34.016-0.173,44.968,118.998,44.968,118.998l-225.011,45.296L229.887,297.818z"/>
			<g>
				<path style="fill:#320A44;" d="M306.788,260.404l-3.392-10.867c-0.646-2.07-2.802-3.395-4.831-2.975l-18.698,3.871
					c-2.178,0.45-4.388-0.929-4.916-3.065l-1.44-5.823c-0.15-0.605-0.144-1.229,0.017-1.817l11.54-42.22
					c0.281-1.026,1.227-1.756,2.452-1.9l7.536-0.885c1.767-0.208,3.627,0.891,4.169,2.464l10.746,31.213
					c0.64,1.859,2.688,3.096,4.556,2.749l0,0c1.856-0.345,3.898,0.886,4.577,2.762l1.557,4.304c0.698,1.932-0.256,3.827-2.149,4.22
					l0,0c-1.907,0.395-2.905,2.333-2.213,4.344l3.632,10.551c0.734,2.132-0.278,4.265-2.28,4.748l-5.876,1.42
					C309.715,263.993,307.474,262.601,306.788,260.404z M294.993,234.775c1.986-0.369,3.1-2.228,2.503-4.139l-3.27-10.474
					c-1.08-3.46-1.873-7.271-2.606-10.666l-0.338,0.048c-0.498,3.72-1.019,6.844-1.834,10.766l-3.518,15.913l0.063,0.223
					L294.993,234.775z"/>
				<path style="fill:#320A44;" d="M354.67,216.791c10.591,22.703,7.64,35.475-2.659,37.982
					c-14.488,3.525-26.41-13.721-32.886-31.177c-6.633-17.883-5.919-31.712,6.346-33.138
					C338.615,188.931,348.264,203.057,354.67,216.791z M331.961,221.038c6.056,15.36,10.871,22.277,15.249,21.323
					c3.888-0.848,2.06-8.602-4.292-23.221c-5.555-12.788-9.805-19.721-13.583-19.214
					C325.576,200.43,326.173,206.946,331.961,221.038z"/>
				<path style="fill:#320A44;" d="M391.006,240.693l-4.679-8.895c-0.896-1.701-2.818-2.821-4.31-2.513l-13.669,2.83
					c-1.584,0.327-3.552-0.831-4.381-2.577l-2.265-4.772c-0.236-0.497-0.356-1.007-0.35-1.485l0.455-34.994
					c0.012-0.867,0.604-1.476,1.537-1.586l5.746-0.675c1.35-0.158,3.035,0.795,3.776,2.137l14.537,26.344
					c0.856,1.552,2.692,2.608,4.089,2.349l0,0c1.388-0.257,3.219,0.794,4.104,2.358l2.026,3.582c0.908,1.605,0.517,3.15-0.889,3.441
					l0,0c-1.413,0.292-1.827,1.868-0.911,3.528l4.788,8.678c0.964,1.745,0.571,3.456-0.891,3.81l-4.286,1.035
					C393.939,243.651,391.948,242.483,391.006,240.693z M376.968,219.554c1.472-0.273,1.975-1.79,1.14-3.378l-4.601-8.743
					c-1.526-2.902-2.902-6.101-4.152-8.958l-0.255,0.037c0.354,3.114,0.568,5.72,0.713,8.979l0.416,13.114l0.092,0.184
					L376.968,219.554z"/>
			</g>
			<path style="fill:#490A0A;" d="M422.708,452.464l-2.337,27.505h153.566l-6.872-24.156
				C567.065,455.813,427.699,450.662,422.708,452.464z"/>
			<path style="fill:#CB99FF;" d="M577.545,462.923c-21.262,22.231-89.388,19.59-127.113,9.887
				c-13.768-3.539-23.488-8.021-25.403-12.578c-3.575-8.487-3.813-18.639-2.925-28.856c0.889-10.309,2.92-20.676,3.822-29.459
				c0.386-3.736,0.377-8.742,0.13-14.305c-0.605-13.745-2.683-30.89-3.979-40.678c-0.637-4.79-1.085-7.818-1.085-7.818
				s-38.196,47.065-50.062,57.629c-1.74,1.557-2.916,2.319-3.319,2.032c-1.463-1.05-4.979-14.588-8.173-28.916
				c-3.661-16.396-6.899-33.827-6.182-34.782c0.04-0.059,0.116-0.193,0.22-0.408c3.171-6.514,34.083-83.902,40.601-96.934
				c3.208-6.41,15.167-18.015,26.812-28.404c7.469-6.666,14.808-12.833,19.626-16.813c3.44-2.844,5.598-4.576,5.598-4.576
				s13.009-11.214,23.775-14.354c10.766-3.14,25.568-3.14,25.568-3.14c4.445-0.049,8.626,0.341,12.564,1.13
				c5.818,1.167,11.099,3.194,15.898,5.948c32.692,18.764,42.938,71.046,47.227,110.957c2.22,20.688,2.839,38.053,4.158,45.696
				C579.788,360.199,587.414,452.606,577.545,462.923z"/>
			<path style="opacity:0.25;" d="M577.545,462.923c-21.262,22.231-89.388,19.59-127.113,9.887
				c-4.163-3.741-7.357-7.782-9.236-12.129c-5.701-13.171-13.13-22.048-19.092-29.306c0.889-10.309,2.92-20.676,3.822-29.459
				c0.386-3.736,0.377-8.742,0.13-14.305c17.705-25.354,20.486-59.832,20.105-111.311c-0.301-40.489-16.239-59.459-25.273-66.969
				c7.469-6.666,14.808-12.833,19.626-16.813c26.815,10.353,41.709,56.171,51.707,42.857c8.627-11.488,10.587-48.039,15.799-63.797
				c5.818,1.167,11.099,3.194,15.898,5.948c11.51,20.854,29.906,63.801,47.227,110.957c2.22,20.688,2.839,38.053,4.158,45.696
				C579.788,360.199,587.414,452.606,577.545,462.923z"/>
			<linearGradient id="SVGID_1_" gradientUnits="userSpaceOnUse" x1="432.8174" y1="162.2686" x2="476.1105" y2="134.5518">
				<stop  offset="0" style="stop-color:#FF8D8D"/>
				<stop  offset="1" style="stop-color:#E55555"/>
			</linearGradient>
			<path style="fill:url(#SVGID_1_);" d="M485.138,168.207c0,0-0.358,0.206-1,0.565c-5.347,2.992-30.306,16.66-29.503,10.649
				c0.569-4.271-2.477-8.182-4.777-10.47c-1.323-1.314-2.4-2.09-2.4-2.09s-3.588,4.934-8.074,2.691
				c-11.542-5.773-18.706-19.648-22.415-29.086c-0.938-2.382-1.655-4.481-2.167-6.096c5.158-0.843,8.581-2.772,10.003-1.826
				c2.691,1.794,3.589,6.28,6.28,6.28s0-10.317,4.935-13.009c4.369-2.382,11.551,14.579,6.289,19.738
				c-1.022,1.005-0.83,2.714,0.368,3.503c17.643,11.712,29.848,7.469,32.817,3.225c0.319,0.319,0.646,0.579,0.987,0.798
				C478.719,161.483,485.138,168.207,485.138,168.207z"/>
			<path style="opacity:0.25;" d="M485.138,168.207c0,0-0.358,0.206-1,0.565c-2.741,0.646-6.057,1.242-8.164-0.448
				c-10.001-8.02-20.061,1.552-26.116,0.628c-1.323-1.314-2.4-2.09-2.4-2.09c0.956-5.661-0.076-7.456-6.49-13.067
				c-6.415-5.612-0.687-8.913,0.21-12.053c0.897-3.14-1.346-11.214-3.588-11.214c-2.243,0-2.691,11.214-6.28,10.766
				c-3.589-0.448-5.383-4.486-9.42-4.037c-1.62,0.18-3.387,1.588-4.921,3.212c-0.938-2.382-1.655-4.481-2.167-6.096
				c5.158-0.843,8.581-2.772,10.003-1.826c2.691,1.794,3.589,6.28,6.28,6.28s0-10.317,4.935-13.009
				c4.369-2.382,11.551,14.579,6.289,19.738c-1.022,1.005-0.83,2.714,0.368,3.503c17.643,11.712,29.848,7.469,32.817,3.225
				c0.319,0.319,0.646,0.579,0.987,0.798C478.719,161.483,485.138,168.207,485.138,168.207z"/>
			<path style="fill:#320A44;" d="M492.221,114.606v0.018c-0.668,12.058-11.344,27.543-11.344,31.378
				c0,5.831,3.588,6.729,3.588,6.729s-4.477,2.611-7.984,0.35c-0.341-0.22-0.668-0.479-0.987-0.798
				c-2.97,4.244-15.175,8.487-32.817-3.225c-1.198-0.79-1.391-2.499-0.368-3.503c5.262-5.159-1.92-22.12-6.289-19.738
				c-4.935,2.692-2.243,13.009-4.935,13.009s-3.589-4.485-6.28-6.28c-1.422-0.947-4.845,0.982-10.003,1.826
				c-4.611,0.753-10.608,0.642-17.809-3.171c-8.756-4.634-13.225-15.476-12.22-25.91c0.749-7.742,4.509-15.261,11.771-19.845
				c-1.347,7.177,1.794,12.561,1.794,12.561s0.897-23.326,15.252-26.915c-2.691,5.832,0,11.215,0,11.215
				s13.905-20.635,35.886-17.046c15.952,2.602,24.134,10.842,28.328,18.715c4.571,8.577,4.419,16.723,4.419,16.723
				C490.198,102.997,492.563,108.339,492.221,114.606z"/>
			<path style="fill:#320A44;" d="M446.561,187.944c0,0-1.346-6.28,0.896-10.317c2.243-4.037,26.018-14.803,35.438-15.7
				c9.421-0.897,12.112,5.383,12.561,8.523C476.166,170.001,446.561,187.944,446.561,187.944z"/>
			<path style="fill:#320A44;" d="M370.93,396.745c-0.018,1.982-0.363,3.162-1.121,3.257c-5.361,0.668-18.603,6.15-21.442,2.674
				c-0.579-0.705-1.341-3.603-2.171-7.814c-1.167-5.903-2.472-14.391-3.611-23.025c-2.027-15.436-3.517-31.356-2.705-33.908
				c0.09-0.287,0.215-0.552,0.372-0.799c2.521-4.06,12.946-2.889,12.946-2.889c0.09,0.135,0.184,0.278,0.278,0.431
				c2.956,4.804,7.401,17.566,11.066,30.557C368.135,377.94,370.975,390.869,370.93,396.745z"/>
			<linearGradient id="SVGID_2_" gradientUnits="userSpaceOnUse" x1="223.915" y1="285.73" x2="362.2684" y2="382.852">
				<stop  offset="0" style="stop-color:#FF8D8D"/>
				<stop  offset="1" style="stop-color:#E55555"/>
			</linearGradient>
			<path style="fill:url(#SVGID_2_);" d="M346.195,394.861c-3.54-0.453-8.057-1.387-13.126-3.262
				c-5.181-1.92-21.433-14.009-38.802-27.538c-5.607-4.369-11.336-8.891-16.84-13.265c-17.307-13.753-32.441-26.075-34.972-27.829
				c-5.831-4.038-14.803-4.935-19.288-13.458c-4.486-8.522-0.449-28.261,0-28.709c0.448-0.448,8.971,14.354,10.317,14.354
				c1.346,0,2.691-13.457,5.383-12.111s9.868,25.568,14.354,28.709c2.266,1.583,25.421,8.308,47.81,14.583
				c16.216,4.54,32.028,8.847,39.219,10.793c-0.157,0.247-0.282,0.512-0.372,0.799c-0.812,2.552,0.678,18.473,2.705,33.908
				C343.724,380.47,345.028,388.958,346.195,394.861z"/>
			<linearGradient id="SVGID_3_" gradientUnits="userSpaceOnUse" x1="223.915" y1="285.73" x2="362.2693" y2="382.8526">
				<stop  offset="0" style="stop-color:#FF8D8D"/>
				<stop  offset="1" style="stop-color:#E55555"/>
			</linearGradient>
			<path style="fill:url(#SVGID_3_);" d="M346.195,394.861c-3.54-0.453-8.057-1.387-13.126-3.262
				c-5.181-1.92-21.433-14.009-38.802-27.538c-7.733-17.364,1.202-31.315,6.765-37.726c16.216,4.54,32.028,8.847,39.219,10.793
				c-0.157,0.247-0.282,0.512-0.372,0.799C338.609,341.911,342.947,378.407,346.195,394.861z"/>
			<path style="opacity:0.25;" d="M484.465,152.731c0,0-4.477,2.611-7.984,0.35c-0.341-0.22-0.668-0.479-0.987-0.798
				c-2.97,4.244-15.175,8.487-32.817-3.225c-1.198-0.79-1.391-2.499-0.368-3.503c5.262-5.159-1.92-22.12-6.289-19.738
				c-4.935,2.692-2.243,13.009-4.935,13.009s-3.589-4.485-6.28-6.28c-1.422-0.947-4.845,0.982-10.003,1.826
				c-4.611,0.753-10.608,0.642-17.809-3.171c-8.756-4.634-13.225-15.476-12.22-25.91c0.821,2.171,5.505,12.134,23.17,13.632
				c-6.411-3.665-4.123-16.646-4.123-16.646s5.5,7.325,19.854,8.474s19.697-3.127,31.153,3.436
				c11.452,6.567,9.618,12.677,9.618,12.677s2.444-6.567-1.983-12.291c8.703,2.669,8.344,15.956,8.344,15.956
				s3.566-7.635,9.371-9.012c5.8-1.373,6.872,4.073,6.872,4.073s4.023-4.069,5.172-10.963
				c-0.668,12.058-11.344,27.543-11.344,31.378C480.877,151.833,484.465,152.731,484.465,152.731z"/>
			<path style="opacity:0.25;fill:#FFFFFF;" d="M477.804,83.973c-7.289-10.438-22.729-14.808-35.882-13.843
				c11.3,4.199,11.071,11.439,11.071,11.439s-3.36-8.842-15.804-8.994c-12.448-0.152-18.02,4.123-19.244,8.994
				c-1.22,4.867,2.216,10.474,2.216,10.474s-5.347-0.458-8.245-8.626c-2.902-8.169,1.674-12.327,1.674-12.327
				c-2.691,5.832,0,11.215,0,11.215s13.905-20.635,35.886-17.046C465.428,67.86,473.609,76.1,477.804,83.973z"/>
			<path style="opacity:0.25;" d="M422.076,346.934c-0.637-4.79-1.085-7.818-1.085-7.818s-38.196,47.065-50.062,57.629
				c-0.018,1.982-0.363,3.162-1.121,3.257c-5.361,0.668-18.603,6.15-21.442,2.674c-0.579-0.705-1.341-3.603-2.171-7.814
				c-3.54-0.453-8.057-1.387-13.126-3.262c-5.181-1.92-21.433-14.009-38.802-27.538c-5.607-4.369-11.336-8.891-16.84-13.265
				c16.539,5.948,47.895,16.921,65.156,21.039c4.849,1.152,8.59,1.767,10.573,1.574c1.498-0.144,3.655-1.413,6.28-3.549
				c1.552-1.256,3.266-2.821,5.104-4.634c19.692-19.388,53.632-67.237,53.632-77.487
				C418.174,275.642,440.979,305.297,422.076,346.934z"/>
			<g>
				<path style="fill:#320A44;" d="M456.858,377.955c0,0-20.129,18.818-34.331,21.796c-4.123,13.285-2.63,22.448,7.046,22.906
					s30.292-15.277,32.124-27.796C463.53,382.341,456.858,377.955,456.858,377.955z"/>
				<path style="fill:#320A44;" d="M470.806,243.837c0,0-20.567,30.351-19.952,7.24c0.287-10.636-5.576-21.204-11.991-29.512
					c-7.522-9.748-15.799-16.391-15.799-16.391c-2.135-1.826,5.647-13.565,15.378-13.565c12.919,3.799,21.23,18.226,26.196,30.952
					C469.043,233.87,470.806,243.837,470.806,243.837z"/>
				<path style="opacity:0.25;" d="M464.638,222.561c4.405,11.309,6.168,21.276,6.168,21.276s-20.567,30.351-19.952,7.24
					c0.287-10.636-5.576-21.204-11.991-29.512C444.815,222.279,454.262,223.059,464.638,222.561z"/>
				<path style="fill:#320A44;" d="M542.633,226.428c0,0-38.659,19.257-25.865,0c4.544-6.841,5.056-15.602,3.826-24.053
					c-2.229-15.337-10.196-29.66-10.196-29.66c-0.843-2.683,12.386-3.988,20.63,1.18c4.298,4.854,7.16,10.649,9.035,16.588
					C545.548,207.834,542.633,226.428,542.633,226.428z"/>
				<path style="opacity:0.25;" d="M542.633,226.428c0,0-38.659,19.257-25.865,0c4.544-6.841,5.056-15.602,3.826-24.053
					c7.168-4.513,13.78-8.882,19.469-11.892C545.548,207.834,542.633,226.428,542.633,226.428z"/>
				<path style="fill:#4A0884;" d="M588.414,409.627c-0.026,1.449-0.116,2.746-0.273,3.867
					c-2.521,17.867-46.271,37.564-62.308,41.368c-16.032,3.809-21.944-5.064-21.944-5.064c-3.898-0.901-6.998-4.423-9.465-9.613
					c-11.421-24.021-9.21-83.728-9.21-83.728l17.486-43.193c0,0,4.226-0.605,10.636-1.306h0.009
					c19.903-2.166,60.818-5.244,61.509,6.024c0.342,5.549,2.615,17.732,5.213,31.76C584.01,371.028,588.675,396.561,588.414,409.627
					z"/>
				<path style="opacity:0.25;" d="M580.066,349.743c-3.477,8.249-8.115,15.202-11.856,16.337
					c-7.558,2.288-56.117-0.919-61.845-8.936c-5.729-8.016-2.477-42.297-2.477-42.297l9.447-2.889h0.009
					c19.903-2.166,60.818-5.244,61.509,6.024C575.195,323.532,577.469,335.715,580.066,349.743z"/>
				<path style="fill:#4A0884;" d="M497.317,388.984c-5.841,30.234,6.571,60.814,6.571,60.814s-22.721,2.063-36.129-14.431
					c-13.408-16.49-10.299-30.234-9.268-41.915c0.238-2.724-3.423-10.812-3.741-16.378c-0.237-4.078,2.57-9.694,2.57-9.694
					c-1.121-12.856-2.718-26.372-3.894-35.792c-0.242-1.938-0.467-3.7-0.664-5.253c-1.946-15.233,7.967-24.698,7.967-24.698
					c4.289-8.263,16.234-10.125,26.543-8.519c7.913,1.233,14.856,4.517,16.615,8.519c0.713,1.624,1.152,4.44,1.359,8.155
					c0.188,3.359,0.188,7.45,0.026,12.044C504.61,340.991,501.197,368.888,497.317,388.984z"/>
				<path style="fill:#4A0884;" d="M569.126,346.378c-7.276,4.912-39.856,8.936-51.358,2.063
					c-9.945-5.939-10.021-15.472-12.493-26.605c-0.386-1.745-0.834-3.535-1.386-5.352c-0.525-1.723-1.225-3.423-2.046-5.069
					c-4.063-8.178-11.098-15.152-14.569-18.297c-1.266-1.153-2.06-1.79-2.06-1.79s55.485-41.377,76.698-35.527
					c8.738,2.404,14.88,9.918,19.109,18.495c6.043,12.255,8.178,26.69,8.38,31.539C589.742,314.081,576.406,341.466,569.126,346.378
					z"/>
				<path style="opacity:0.25;" d="M581.021,274.296c-20.724,9.33-63.438,29.624-75.773,35.496
					c-2.176,1.036-3.405,1.623-3.405,1.623s-16.934,24.044-33.732,24.196c-6.617,0.059-11.363-1.776-14.683-4.023
					c-0.242-1.938-0.467-3.7-0.664-5.253c-1.946-15.233,7.967-24.698,7.967-24.698c4.289-8.263,16.234-10.125,26.543-8.519
					c-1.266-1.153-2.06-1.79-2.06-1.79s55.485-41.377,76.698-35.527C570.65,258.206,576.792,265.719,581.021,274.296z"/>
				<path style="fill:#456DFF;" d="M584.934,251.32c-4.352,8.702-104.452,51.766-110.866,57.494
					c-0.902,0.808-1.799,1.584-2.688,2.324c-0.358,0.291-0.713,0.583-1.072,0.865c-0.888,0.704-1.776,1.368-2.664,1.979
					c-0.538,0.368-1.072,0.713-1.615,1.036c-1.076,0.646-2.166,1.207-3.27,1.659c0,0,0,0.005-0.005,0.005
					c-2.162,0.884-4.396,1.363-6.773,1.297c-0.144-0.005-0.292-0.01-0.436-0.019s-0.291-0.018-0.435-0.031
					c-0.14-0.005-0.278-0.018-0.422-0.04c1.148,0.107,2.297,0.067,3.449-0.121c11.488-1.889,18.392-18.078,15.423-36.169
					c-0.597-3.639-1.548-7.074-2.781-10.228c-4.89-12.534-14.216-20.621-23.39-19.114c-4.525,0.744-8.339,3.705-11.12,8.128
					c0.072-0.35,2.297-10.385,28.176-20.061c26.345-9.851,52.914-18.786,59.329-21.994c4.867-2.431,18.176-11.196,31.521-12.878
					c4.239-0.534,8.482-0.354,12.457,0.969C584.247,211.921,589.285,242.613,584.934,251.32z"/>
				<path style="fill:#4A0884;" d="M458.138,317.768c-1.157,0.188-2.314,0.229-3.467,0.121c-0.14-0.014-0.283-0.031-0.427-0.05
					c-0.017-0.002-0.032-0.008-0.049-0.01c-10.113-1.266-19.595-13.389-22.228-29.403c-1.799-10.968,0.027-21.235,4.302-28.041
					c2.781-4.423,6.595-7.384,11.12-8.128c11.484-1.884,23.201,11.255,26.171,29.342
					C476.529,299.69,469.626,315.879,458.138,317.768z"/>
				
					<path style="opacity:0.25;fill:none;stroke:#000000;stroke-width:1.7943;stroke-linecap:round;stroke-linejoin:round;stroke-miterlimit:10;" d="
					M468.111,275.828c0,0-8.596-20.204-20.769-15.958c-12.173,4.247-7.024,48.104,5.421,48.256
					c12.446,0.152,13.973-33.29,6.185-37.261s-16.187,12.369-9.926,21.99c6.261,9.62,7.005-6.414,5.029-11.148"/>
				<path style="opacity:0.25;" d="M584.934,251.32c-4.352,8.702-104.452,51.766-110.866,57.494
					c-0.902,0.808-1.799,1.584-2.688,2.324c-0.358,0.291-0.713,0.583-1.072,0.865c-0.888,0.709-1.776,1.373-2.664,1.979
					c-0.538,0.368-1.072,0.713-1.615,1.036c-1.076,0.646-2.162,1.207-3.27,1.659c0,0,0,0.005-0.005,0.005
					c-2.157,0.884-4.396,1.363-6.773,1.297c-0.144-0.005-0.292-0.01-0.436-0.019s-0.291-0.018-0.435-0.031
					c-0.14-0.005-0.278-0.018-0.422-0.04c1.148,0.107,2.297,0.067,3.449-0.121c11.488-1.889,18.392-18.078,15.423-36.169
					c-0.597-3.639-1.548-7.074-2.781-10.228c5.85,4.279,13.457,8.024,22.07,7.891c18.88-0.292,77.245-42.49,62.446-73.81
					c4.239-0.534,8.482-0.354,12.457,0.969C584.247,211.921,589.285,242.613,584.934,251.32z"/>
				<path style="fill:#320A44;" d="M471.425,237.737c0,0,30.211,6.699,28.338,57.9c6.831,3.326,18.927-2.672,19.636-9.294
					c0.71-6.621-0.413-40.74-31.462-54.604C478.189,228.183,471.425,237.737,471.425,237.737z"/>
				<path style="fill:#320A44;" d="M517.766,219.859c0,0,28.976,6.426,27.179,55.533c6.552,3.189,18.153-2.563,18.834-8.913
					c0.68-6.352-0.397-39.075-30.177-52.372C524.254,210.696,517.766,219.859,517.766,219.859z"/>
				<path style="fill:#A52CE5;" d="M510.422,251.172c0,0-15.511,2.831-16.656,7.787c-1.145,4.957,20.96-3.289,20.272-5.236
					S512.469,250.744,510.422,251.172z"/>
				<path style="fill:#A52CE5;" d="M556.234,235.473c0,0-15.511,2.83-16.656,7.787c-1.145,4.957,20.959-3.289,20.272-5.236
					C559.163,236.077,558.281,235.044,556.234,235.473z"/>
				<path style="fill:#320A44;" d="M503.889,449.798c0.152,1.723-11.52,6.051-23.394,4.862c-8.397-0.839-16.902-4.44-21.393-13.677
					c-8.887-18.275-13.085-51.317-7.195-66.511c1.297-3.343,3.082-5.823,5.414-7.093c0,0-9.904,33.187,39.269,26.022
					c-0.502,3.691-0.65,7.626-0.538,11.627C496.6,425.274,503.674,447.344,503.889,449.798z"/>
				<path style="fill:#320A44;" d="M537.311,411.123c0,0,2.726,27.568,5.933,28.256c3.207,0.687,43.063-15.576,43.178-27.259
					c0.115-11.683-1.946-21.073-6.757-24.51C574.854,384.174,536.416,403.417,537.311,411.123z"/>
				<circle style="fill:#456DFF;" cx="560.958" cy="335.614" r="3.97"/>
				
					<path style="opacity:0.25;fill:none;stroke:#000000;stroke-width:1.7943;stroke-linecap:round;stroke-linejoin:round;stroke-miterlimit:10;" d="
					M477.273,308.126c0,0-8.034,40.161-3.024,66.274"/>
				<path style="opacity:0.25;" d="M503.889,449.798c0.152,1.723-11.52,6.051-23.394,4.862c14.763-8.415,7.092-48.052,4.719-50.842
					c-2.901-3.409-19.392-1.166-28.099-12.009c-4.684-5.831-5.477-12.461-5.208-17.337c1.297-3.343,3.082-5.823,5.414-7.093
					c0,0-9.904,33.187,39.269,26.022C493.535,415.783,503.629,446.86,503.889,449.798z"/>
				<path style="opacity:0.25;" d="M588.414,409.627c-0.026,1.449-0.116,2.746-0.273,3.867
					c-2.521,17.867-46.271,37.564-62.308,41.368c-16.032,3.809-21.944-5.064-21.944-5.064c-0.215-2.454-7.289-24.524-7.837-44.769
					l0.538-11.627c0,0,9.089,44.068,18.249,49.105c9.164,5.038,18.477,2.293,17.866-12.062
					c-0.609-14.354,3.369-24.179,11.076-27.439C551.321,399.822,573.494,432.775,588.414,409.627z"/>
			</g>
		</g>
		<g>
			<g>
				<path style="fill:#A52CE5;" d="M614.863,454.573c0,0,18.783-65.442,66.733-87.772c-3.207,13.709-1.146,94.434-26.8,113.169
					h-56.579L614.863,454.573z"/>
				
					<path style="opacity:0.25;fill:none;stroke:#000000;stroke-width:1.7943;stroke-linecap:round;stroke-linejoin:round;stroke-miterlimit:10;" d="
					M681.597,366.8c0,0-24.28,23.87-33.672,56.585c-9.392,32.714-17.18,51.195-20.387,56.614"/>
				
					<path style="opacity:0.25;fill:none;stroke:#000000;stroke-width:1.7943;stroke-linecap:round;stroke-linejoin:round;stroke-miterlimit:10;" d="
					M617.589,446.531c0,0,14.536,10.712,15.221,22.075c26.568-12.507,36.118-11.038,36.118-11.038"/>
				
					<path style="opacity:0.25;fill:none;stroke:#000000;stroke-width:1.7943;stroke-linecap:round;stroke-linejoin:round;stroke-miterlimit:10;" d="
					M627.538,422.667c0,0,13.345,8.325,14.804,19.161c0,0,21.05-10.438,32.901-10.797"/>
				
					<path style="opacity:0.25;fill:none;stroke:#000000;stroke-width:1.7943;stroke-linecap:round;stroke-linejoin:round;stroke-miterlimit:10;" d="
					M643.258,398.147c0,0,8.566,3.342,9.365,12.093c12.71-5.221,25.718-5.036,25.718-5.036"/>
			</g>
			<g>
				<path style="fill:#4A0884;" d="M562.714,479.969c0,0-0.229-40.113,54.059-57.303C624.561,454.725,602.342,480,602.342,480
					L562.714,479.969z"/>
				
					<path style="opacity:0.25;fill:none;stroke:#000000;stroke-width:1.7943;stroke-linecap:round;stroke-linejoin:round;stroke-miterlimit:10;" d="
					M616.772,422.667c0,0-34.685,45.042-34.408,57.333"/>
				
					<path style="opacity:0.25;fill:none;stroke:#000000;stroke-width:1.7943;stroke-linecap:round;stroke-linejoin:round;stroke-miterlimit:10;" d="
					M568.608,459.219c0,0,13.472,3.698,15.643,13.575c12.364-3.982,24.465-2.058,24.465-2.058"/>
				
					<path style="opacity:0.25;fill:none;stroke:#000000;stroke-width:1.7943;stroke-linecap:round;stroke-linejoin:round;stroke-miterlimit:10;" d="
					M582.005,441.828c0,0,10.853,6.368,11.528,13.985c16.939-5.783,22.601-2.678,22.601-2.678"/>
				
					<path style="opacity:0.25;fill:none;stroke:#000000;stroke-width:1.7943;stroke-linecap:round;stroke-linejoin:round;stroke-miterlimit:10;" d="
					M597.081,431.031c0,0,5.677,4.744,6.385,9.867c7.694-2.207,14.89-1.499,14.89-1.499"/>
			</g>
		</g>
		<g>
			<g>
				<path style="fill:#A52CE5;" d="M256.344,443.443c0,0,10.994-113.671-119.914-95.117
					C138.491,401.583,195.184,442.354,256.344,443.443z"/>
				
					<path style="opacity:0.25;fill:none;stroke:#000000;stroke-width:1.7943;stroke-linecap:round;stroke-linejoin:round;stroke-miterlimit:10;" d="
					M136.43,348.326c0,0,46.729,57.354,118.883,92.528"/>
				
					<path style="opacity:0.25;fill:none;stroke:#000000;stroke-width:1.7943;stroke-linecap:round;stroke-linejoin:round;stroke-miterlimit:10;" d="
					M148.447,387.204l25.725-1.038c0,0,0.126-26.453,6.045-38.961"/>
				
					<path style="opacity:0.25;fill:none;stroke:#000000;stroke-width:1.7943;stroke-linecap:round;stroke-linejoin:round;stroke-miterlimit:10;" d="
					M168.594,410.831l34.034-2.635c0,0-1.989-45.449,2.327-55.122"/>
				
					<path style="opacity:0.25;fill:none;stroke:#000000;stroke-width:1.7943;stroke-linecap:round;stroke-linejoin:round;stroke-miterlimit:10;" d="
					M195.871,428.855l30.384-4.05c0,0,0.949-47.564,7.101-53.031"/>
			</g>
			<path style="fill:#4A0884;" d="M256.344,443.443c0,0-29.435-25.597,0-70.493C279.364,395.398,284.861,431.703,256.344,443.443z"
				/>
			
				<path style="opacity:0.25;fill:none;stroke:#000000;stroke-width:1.7943;stroke-linecap:round;stroke-linejoin:round;stroke-miterlimit:10;" d="
				M256.344,372.95c0,0,12.025,19.813,0,70.493"/>
			
				<path style="opacity:0.25;fill:none;stroke:#000000;stroke-width:1.7943;stroke-linecap:round;stroke-linejoin:round;stroke-miterlimit:10;" d="
				M246.272,393.3c0,0,12.399,5.075,15.416,8.396c7.94-5.497,9.784-6.836,9.784-6.836"/>
			
				<path style="opacity:0.25;fill:none;stroke:#000000;stroke-width:1.7943;stroke-linecap:round;stroke-linejoin:round;stroke-miterlimit:10;" d="
				M243.35,408.196c0,0,15.782,6.298,17.538,9.177c8.054-5.94,14.838-6.742,14.838-6.742"/>
			
				<path style="opacity:0.25;fill:none;stroke:#000000;stroke-width:1.7943;stroke-linecap:round;stroke-linejoin:round;stroke-miterlimit:10;" d="
				M244.45,421.824c0,0,13.173,6.39,14.423,9.566c7.32-6.901,15.374-6.819,15.374-6.819"/>
		</g>
	</g>
</g>
</svg>
