<svg id="Layer_1" enable-background="new 0 0 512 512" height="512" viewBox="0 0 512 512" width="512" xmlns="http://www.w3.org/2000/svg"><g><g id="XMLID_415_"><g id="XMLID_1024_"><g id="XMLID_1039_"><g id="XMLID_1049_"><g id="XMLID_1085_"><g id="XMLID_1104_"><g id="XMLID_1105_"><g id="XMLID_1107_"><g id="XMLID_1109_"><g id="XMLID_1110_"><g id="XMLID_1111_"><g id="XMLID_1113_"><g id="XMLID_1114_"><g id="XMLID_1131_"><circle id="XMLID_1132_" cx="256" cy="256" fill="#436375" r="256"/></g></g></g></g></g></g></g></g></g></g></g></g></g></g><path d="m512 256c0-39.4-8.91-76.716-24.81-110.057l-42.564-42.564-377.252 305.242 78.568 78.568c33.342 15.901 70.658 24.811 110.058 24.811 141.385 0 256-114.615 256-256z" fill="#274a59"/><g><path d="m444.626 408.621h-188.444l-188.808-152.769v-152.473h188.444l188.808 152.769z" fill="#21d461"/><path d="m444.63 256.15v152.47h-188.45v-304.95z" fill="#1cae4f"/><path d="m67.374 255.852h188.808v152.769h-188.808z" fill="#fff"/><path d="m255.818 103.379h188.808v152.769h-188.808z" fill="#e9edf5"/></g><g><path d="m214.908 229.914v25.986h-106.259v-25.986c0-21.878 20.18-39.606 45.058-39.606h16.154c24.879 0 45.047 17.728 45.047 39.606z" fill="#fa4c4f"/><path d="m214.908 229.914v25.986h-53.123v-65.592h8.077c24.878 0 45.046 17.728 45.046 39.606z" fill="#e4186b"/><ellipse cx="161.779" cy="173.147" fill="#ffd097" rx="32.26" ry="32.26" transform="matrix(.23 -.973 .973 .23 -43.905 290.817)"/><g><path d="m194.042 173.146c0 10.02-4.564 18.973-11.734 24.884-5.57 4.608-12.73 7.38-20.53 7.38v-64.527c17.82 0 32.264 14.444 32.264 32.263z" fill="#ffc473"/></g></g><g><path d="m403.351 229.914v25.986h-106.259v-25.986c0-21.878 20.18-39.606 45.058-39.606h16.154c24.878 0 45.047 17.728 45.047 39.606z" fill="#ff8900"/><path d="m403.351 229.914v25.986h-53.123v-65.592h8.077c24.877 0 45.046 17.728 45.046 39.606z" fill="#e57200"/><ellipse cx="350.222" cy="173.147" fill="#ffc473" rx="32.26" ry="32.26" transform="matrix(.23 -.973 .973 .23 101.242 474.218)"/><g><path d="m382.485 173.146c0 10.02-4.564 18.973-11.734 24.884-5.57 4.608-12.73 7.38-20.53 7.38v-64.527c17.82 0 32.264 14.444 32.264 32.263z" fill="#ffb74f"/></g></g><g><path d="m403.351 382.635v25.986h-106.259v-25.986c0-21.878 20.18-39.606 45.058-39.606h16.154c24.878.001 45.047 17.729 45.047 39.606z" fill="#835637"/><path d="m403.351 382.635v25.986h-53.123v-65.591h8.077c24.877 0 45.046 17.728 45.046 39.605z" fill="#704528"/><ellipse cx="350.222" cy="325.868" fill="#ffc473" rx="32.26" ry="32.26" transform="matrix(.23 -.973 .973 .23 -47.394 591.852)"/><g><path d="m382.485 325.868c0 10.02-4.564 18.973-11.734 24.884-5.57 4.608-12.73 7.38-20.53 7.38v-64.527c17.82-.001 32.264 14.444 32.264 32.263z" fill="#ffb74f"/></g></g><g><path d="m214.908 382.635v25.986h-106.259v-25.986c0-21.878 20.18-39.606 45.058-39.606h16.154c24.878.001 45.047 17.729 45.047 39.606z" fill="#005fd2"/><path d="m214.908 382.635v25.986h-53.123v-65.591h8.077c24.877 0 45.046 17.728 45.046 39.605z" fill="#00459f"/><ellipse cx="161.778" cy="325.868" fill="#ffd097" rx="32.26" ry="32.26" transform="matrix(.707 -.707 .707 .707 -183.04 209.839)"/><g><path d="m194.042 325.868c0 10.02-4.564 18.973-11.734 24.884-5.57 4.608-12.73 7.38-20.53 7.38v-64.527c17.82-.001 32.264 14.444 32.264 32.263z" fill="#ffc473"/></g></g></g></svg>