<?xml version="1.0"?>
<svg xmlns="http://www.w3.org/2000/svg" xmlns:xlink="http://www.w3.org/1999/xlink" version="1.1" id="Layer_1" x="0px" y="0px" viewBox="0 0 511.879 511.879" style="enable-background:new 0 0 511.879 511.879;" xml:space="preserve" width="512px" height="512px"><g><g>
	<g>
		<path d="M447.925,153.54h-49.552V67.128c0-22.457-8.056-57.608-62.368-57.608H62.368C7.934,9.52,0,46.38,0,67.128v144.02    c0,28.803,17.575,49.552,46.379,57.608l-1.586,81.652c0,6.346,3.173,11.229,9.642,14.402c1.586,1.586,4.76,1.586,6.346,1.586    c3.173,0,6.346-1.586,9.642-3.173l40.033-32.832c1.343,49.674,43.816,77.623,83.117,77.623h107.16l92.758,89.585    c3.173,3.173,6.346,4.76,11.229,4.76c3.173,0,4.76,0,6.346-1.586c6.346-1.586,9.642-8.055,9.642-14.402v-78.356h27.217    c36.859,0,63.954-30.391,63.954-72.01V209.562C512.002,188.69,502.359,153.54,447.925,153.54z M128.154,169.528    c-0.122,0-0.122,0-0.244,0H95.933c-9.642,0-15.989,6.346-15.989,15.988c0,9.643,6.346,15.988,15.989,15.988h14.768    c-0.244,2.075-0.366,4.271-0.366,6.346v81.285l-33.564,27.461l1.586-60.781c0-7.932-6.468-14.277-14.402-15.865    c-31.977-3.173-31.977-22.457-31.977-28.803V67.128c0-14.402,1.586-25.631,30.39-25.631h273.637    c25.631,0,30.39,9.643,30.39,25.631v86.412H179.171C157.812,153.54,140.237,159.521,128.154,169.528z M447.926,377.624H404.72    c-4.76,0-8.056,1.586-11.229,4.76c-3.173,3.173-4.76,6.346-4.76,11.229v56.022l-70.424-67.25c-3.173-3.173-6.346-4.76-11.229-4.76    H193.45c-17.575,0-51.261-9.643-51.261-47.965V208.097c0-20.748,30.39-22.457,36.859-22.457l268.877,1.586    c30.39,0,31.977,11.229,31.977,24.044l0.001,126.32C479.903,356.753,470.261,377.624,447.926,377.624z" data-original="#000000" class="active-path" data-old_color="#000000" fill="#343637"/>
	</g>
</g><g>
	<g>
		<path d="M415.948,297.559H223.964c-9.642,0-15.989,6.346-15.989,15.988c0,9.643,6.346,15.988,15.989,15.988h191.985    c9.642,0,15.989-6.346,15.989-15.988S425.59,297.559,415.948,297.559z" data-original="#000000" class="active-path" data-old_color="#000000" fill="#343637"/>
	</g>
</g><g>
	<g>
		<path d="M415.948,233.482h-47.965c-9.642,0-15.989,6.346-15.989,15.988s6.346,15.988,15.989,15.988h47.965    c9.642,0,15.989-6.346,15.989-15.988C431.937,239.829,425.59,233.482,415.948,233.482z" data-original="#000000" class="active-path" data-old_color="#000000" fill="#343637"/>
	</g>
</g><g>
	<g>
		<path d="M304.028,233.605h-80.065c-9.642,0-15.989,6.346-15.989,15.988c0,9.642,6.347,15.988,15.989,15.988h80.065    c9.642,0,15.989-6.346,15.989-15.988C320.017,239.951,313.671,233.605,304.028,233.605z" data-original="#000000" class="active-path" data-old_color="#000000" fill="#343637"/>
	</g>
</g><g>
	<g>
		<path d="M111.921,105.575H95.932c-9.642,0-15.989,6.346-15.989,15.988c0,9.52,6.347,15.988,15.989,15.988h15.989    c9.642,0,15.989-6.346,15.989-15.988C127.91,111.921,121.564,105.575,111.921,105.575z" data-original="#000000" class="active-path" data-old_color="#000000" fill="#343637"/>
	</g>
</g><g>
	<g>
		<path d="M288.04,105.575h-80.065c-9.642,0-15.989,6.346-15.989,15.988c0,9.52,6.346,15.988,15.989,15.988h80.065    c9.642,0,15.989-6.346,15.989-15.988C304.029,111.921,297.683,105.575,288.04,105.575z" data-original="#000000" class="active-path" data-old_color="#000000" fill="#343637"/>
	</g>
</g></g> </svg>
